<?xml version="1.0" standalone="no"?><!DOCTYPE svg PUBLIC "-//W3C//DTD SVG 1.1//EN" "http://www.w3.org/Graphics/SVG/1.1/DTD/svg11.dtd"><svg t="1638091338048" class="icon" viewBox="0 0 1024 1024" version="1.1" xmlns="http://www.w3.org/2000/svg" p-id="10462" width="48" height="48" xmlns:xlink="http://www.w3.org/1999/xlink"><defs><style type="text/css"></style></defs><path d="M512 949.138286c238.72 0 437.138286-198.418286 437.138286-437.138286 0-239.140571-198.857143-437.138286-437.577143-437.138286C272.438857 74.861714 74.88 272.859429 74.88 512c0 238.72 197.997714 437.138286 437.138286 437.138286zM323.419429 705.28c-45.842286 0-68.992-22.710857-68.992-67.291429V409.161143c0-45.001143 23.149714-67.712 68.992-67.712h49.298285c17.133714 0 22.272-3.858286 32.146286-14.153143l17.554286-19.712c11.154286-11.995429 22.308571-18.432 44.580571-18.432h87.424c22.290286 0 33.426286 6.436571 44.141714 18.432l17.572572 19.712c9.874286 11.154286 14.994286 14.153143 32.146286 14.153143h51.437714c44.982857 0 68.571429 22.710857 68.571428 67.712v228.864c0 44.562286-23.588571 67.291429-68.571428 67.291428z m185.581714-60.854857c71.131429 0 128.146286-55.716571 128.146286-128.987429a127.670857 127.670857 0 0 0-128.146286-128.146285c-71.131429 0-129.005714 56.996571-129.005714 128.146285a128.585143 128.585143 0 0 0 129.005714 128.987429z m168.411428-186.002286c15.872 0 29.165714-12.854857 28.726858-29.129143 0-16.292571-12.854857-29.147429-28.708572-29.147428-15.853714 0-29.147429 12.854857-29.147428 29.147428 0 16.274286 13.293714 29.129143 29.147428 29.129143z m-168.411428 148.717714a91.538286 91.538286 0 0 1-91.721143-91.721142c0-50.56 41.142857-91.282286 91.721143-91.282286a91.355429 91.355429 0 0 1 91.282286 91.282286c0 51.017143-41.142857 91.721143-91.282286 91.721142z" p-id="10463" fill="#9933FF"></path></svg>