<?xml version="1.0" standalone="no"?><!DOCTYPE svg PUBLIC "-//W3C//DTD SVG 1.1//EN" "http://www.w3.org/Graphics/SVG/1.1/DTD/svg11.dtd"><svg t="1636884586278" class="icon" viewBox="0 0 1024 1024" version="1.1" xmlns="http://www.w3.org/2000/svg" p-id="4327" xmlns:xlink="http://www.w3.org/1999/xlink" width="32" height="32"><defs><style type="text/css"></style></defs><path d="M469.333333 85.333333a384 384 0 0 1 301.952 621.226667l-8.746666 10.752 113.408 113.408a32 32 0 0 1-41.642667 48.341333l-3.584-3.114666-113.408-113.408A384 384 0 1 1 469.333333 85.333333z m0 64a320 320 0 1 0 0 640 320 320 0 0 0 0-640z" fill="#000000" p-id="4328"></path><path d="M469.333333 309.333333a32 32 0 0 0-32 32v96H341.333333a32 32 0 1 0 0 64h96V597.333333a32 32 0 1 0 64 0v-96H597.333333a32 32 0 1 0 0-64h-96V341.333333a32 32 0 0 0-32-32z" fill="#000000" p-id="4329"></path></svg>